<svg xmlns="http://www.w3.org/2000/svg" xmlns:xlink="http://www.w3.org/1999/xlink" width="600" zoomAndPan="magnify" viewBox="0 0 450 89.999999" height="120" preserveAspectRatio="xMidYMid meet" version="1.0"><defs><g/></defs><g fill="#3770ff" fill-opacity="1"><g transform="translate(57.945607, 89.39334)"><g><path d="M 35.796875 -63.953125 C 46.742188 -63.953125 54.972656 -60.585938 60.484375 -53.859375 C 66.003906 -47.140625 68.414062 -37.910156 67.71875 -26.171875 L 23.234375 -26.171875 C 24.253906 -22.410156 26.054688 -19.515625 28.640625 -17.484375 C 31.222656 -15.453125 34.390625 -14.4375 38.140625 -14.4375 C 43.929688 -14.4375 48.976562 -16.585938 53.28125 -20.890625 L 63.953125 -10.4375 C 57.148438 -3.007812 47.957031 0.703125 36.375 0.703125 C 26.125 0.703125 17.96875 -2.226562 11.90625 -8.09375 C 5.84375 -13.96875 2.8125 -21.753906 2.8125 -31.453125 C 2.8125 -41.234375 5.84375 -49.09375 11.90625 -55.03125 C 17.96875 -60.976562 25.929688 -63.953125 35.796875 -63.953125 Z M 22.890625 -37.078125 L 48.234375 -37.078125 C 48.234375 -40.921875 47.117188 -44.015625 44.890625 -46.359375 C 42.660156 -48.703125 39.707031 -49.875 36.03125 -49.875 C 32.582031 -49.875 29.6875 -48.71875 27.34375 -46.40625 C 25 -44.101562 23.515625 -40.992188 22.890625 -37.078125 Z M 22.890625 -37.078125 "/></g></g></g><g fill="#3770ff" fill-opacity="1"><g transform="translate(128.593349, 89.39334)"><g><path d="M 35.796875 -24.40625 L 28.984375 -17.25 L 28.984375 0 L 8.6875 0 L 8.6875 -87.078125 L 28.984375 -87.078125 L 28.984375 -41.078125 L 49.875 -63.25 L 72.875 -63.25 L 49.640625 -38.96875 L 73.578125 0 L 49.53125 0 Z M 35.796875 -24.40625 "/></g></g></g><g fill="#3770ff" fill-opacity="1"><g transform="translate(202.527036, 89.39334)"><g><path d="M 50.234375 -64.203125 C 57.191406 -64.203125 62.78125 -61.988281 67 -57.5625 C 71.226562 -53.144531 73.34375 -47.257812 73.34375 -39.90625 L 73.34375 0 L 53.046875 0 L 53.046875 -34.265625 C 53.046875 -37.941406 52.046875 -40.851562 50.046875 -43 C 48.054688 -45.15625 45.335938 -46.234375 41.890625 -46.234375 C 37.984375 -46.234375 34.851562 -44.828125 32.5 -42.015625 C 30.15625 -39.203125 28.984375 -35.601562 28.984375 -31.21875 L 28.984375 0 L 8.6875 0 L 8.6875 -87.078125 L 28.984375 -87.078125 L 28.984375 -52.8125 C 33.441406 -60.238281 40.523438 -64.035156 50.234375 -64.203125 Z M 50.234375 -64.203125 "/></g></g></g><g fill="#3770ff" fill-opacity="1"><g transform="translate(282.093757, 89.39334)"><g><path d="M 69.71875 -63.25 L 69.71875 0 L 49.40625 0 L 49.40625 -10.4375 C 45.101562 -2.925781 38.257812 0.828125 28.875 0.828125 C 21.988281 0.828125 16.488281 -1.363281 12.375 -5.75 C 8.269531 -10.132812 6.21875 -16.003906 6.21875 -23.359375 L 6.21875 -63.25 L 26.515625 -63.25 L 26.515625 -29.109375 C 26.515625 -25.347656 27.472656 -22.390625 29.390625 -20.234375 C 31.316406 -18.085938 33.878906 -17.015625 37.078125 -17.015625 C 40.921875 -17.097656 43.9375 -18.523438 46.125 -21.296875 C 48.3125 -24.078125 49.40625 -27.660156 49.40625 -32.046875 L 49.40625 -63.25 Z M 69.71875 -63.25 "/></g></g></g><g fill="#3770ff" fill-opacity="1"><g transform="translate(359.900148, 89.39334)"><g><path d="M 47.875 -63.953125 C 56.800781 -63.953125 63.984375 -60.957031 69.421875 -54.96875 C 74.859375 -48.988281 77.578125 -41.109375 77.578125 -31.328125 C 77.578125 -21.710938 74.914062 -13.96875 69.59375 -8.09375 C 64.269531 -2.226562 57.191406 0.703125 48.359375 0.703125 C 40.054688 0.703125 33.597656 -2.347656 28.984375 -8.453125 L 28.984375 0 L 8.6875 0 L 8.6875 -87.078125 L 28.984375 -87.078125 L 28.984375 -54.921875 C 33.679688 -60.941406 39.976562 -63.953125 47.875 -63.953125 Z M 42.953125 -15.375 C 47.179688 -15.375 50.601562 -16.914062 53.21875 -20 C 55.84375 -23.09375 57.15625 -27.066406 57.15625 -31.921875 C 57.15625 -36.773438 55.84375 -40.726562 53.21875 -43.78125 C 50.601562 -46.832031 47.179688 -48.359375 42.953125 -48.359375 C 38.878906 -48.359375 35.53125 -46.832031 32.90625 -43.78125 C 30.289062 -40.726562 28.984375 -36.773438 28.984375 -31.921875 C 28.984375 -26.992188 30.273438 -23.003906 32.859375 -19.953125 C 35.441406 -16.898438 38.804688 -15.375 42.953125 -15.375 Z M 42.953125 -15.375 "/></g></g></g><g fill="#3770ff" fill-opacity="1"><g transform="translate(7.500002, 87.74231)"><g><path d="M 74.96875 -69.015625 L 48.8125 -69.015625 L 48.8125 0 L 26.765625 0 L 26.765625 -69.015625 L 0.875 -69.015625 L 0.875 -86.859375 L 74.96875 -86.859375 Z M 74.96875 -69.015625 "/></g></g></g></svg>