<svg xmlns="http://www.w3.org/2000/svg" xmlns:xlink="http://www.w3.org/1999/xlink" width="750" zoomAndPan="magnify" viewBox="0 0 562.5 173.249993" height="231" preserveAspectRatio="xMidYMid meet" version="1.0"><defs><g/></defs><g fill="#ffde59" fill-opacity="1"><g transform="translate(2.562394, 146.370483)"><g><path d="M 1.1875 -97.625 L 1.1875 -122.015625 L 86.96875 -122.015625 L 86.96875 -97.625 L 57.984375 -97.625 L 57.984375 0 L 30.171875 0 L 30.171875 -97.625 Z M 1.1875 -97.625 "/></g></g></g><g fill="#ffde59" fill-opacity="1"><g transform="translate(67.111121, 147.314246)"><g><path d="M 85.640625 -34.3125 L 30.609375 -34.3125 C 30.609375 -28.988281 32.332031 -25.046875 35.78125 -22.484375 C 39.238281 -19.921875 42.988281 -18.640625 47.03125 -18.640625 C 51.269531 -18.640625 54.625 -19.203125 57.09375 -20.328125 C 59.5625 -21.460938 62.367188 -23.707031 65.515625 -27.0625 L 84.453125 -17.59375 C 76.566406 -4.382812 63.453125 2.21875 45.109375 2.21875 C 33.671875 2.21875 23.859375 -1.695312 15.671875 -9.53125 C 7.492188 -17.375 3.40625 -26.816406 3.40625 -37.859375 C 3.40625 -48.898438 7.492188 -58.363281 15.671875 -66.25 C 23.859375 -74.144531 33.671875 -78.09375 45.109375 -78.09375 C 57.140625 -78.09375 66.925781 -74.613281 74.46875 -67.65625 C 82.007812 -60.707031 85.78125 -50.773438 85.78125 -37.859375 C 85.78125 -36.085938 85.734375 -34.90625 85.640625 -34.3125 Z M 31.359375 -48.8125 L 60.203125 -48.8125 C 59.609375 -52.75 58.050781 -55.773438 55.53125 -57.890625 C 53.019531 -60.015625 49.789062 -61.078125 45.84375 -61.078125 C 41.507812 -61.078125 38.0625 -59.941406 35.5 -57.671875 C 32.9375 -55.410156 31.554688 -52.457031 31.359375 -48.8125 Z M 31.359375 -48.8125 "/></g></g></g><g fill="#ffde59" fill-opacity="1"><g transform="translate(156.296316, 147.314246)"><g><path d="M 95.546875 -75.875 L 59.453125 -39.640625 L 99.09375 0 L 65.375 0 L 35.046875 -30.328125 L 35.046875 0 L 8.875 0 L 8.875 -127.203125 L 35.046875 -127.203125 L 35.046875 -49.40625 L 61.53125 -75.875 Z M 95.546875 -75.875 "/></g></g></g><g fill="#ffde59" fill-opacity="1"><g transform="translate(251.841316, 147.314246)"><g><path d="M 36.6875 -48.953125 L 36.6875 0 L 8.875 0 L 8.875 -122.015625 L 36.6875 -122.015625 L 36.6875 -73.359375 L 76.03125 -73.359375 L 76.03125 -122.015625 L 103.828125 -122.015625 L 103.828125 0 L 76.03125 0 L 76.03125 -48.953125 Z M 36.6875 -48.953125 "/></g></g></g><g fill="#ffde59" fill-opacity="1"><g transform="translate(364.543006, 147.314246)"><g><path d="M 33.578125 -75.875 L 33.578125 -39.78125 C 33.578125 -32.289062 34.707031 -26.96875 36.96875 -23.8125 C 39.238281 -20.65625 43.082031 -19.078125 48.5 -19.078125 C 53.925781 -19.078125 57.773438 -20.65625 60.046875 -23.8125 C 62.316406 -26.96875 63.453125 -32.289062 63.453125 -39.78125 L 63.453125 -75.875 L 89.625 -75.875 L 89.625 -33.421875 C 89.625 -20.804688 86.34375 -11.710938 79.78125 -6.140625 C 73.226562 -0.566406 62.800781 2.21875 48.5 2.21875 C 34.207031 2.21875 23.78125 -0.566406 17.21875 -6.140625 C 10.664062 -11.710938 7.390625 -20.804688 7.390625 -33.421875 L 7.390625 -75.875 Z M 33.578125 -75.875 "/></g></g></g><g fill="#ffde59" fill-opacity="1"><g transform="translate(461.567028, 147.314246)"><g><path d="M 86.96875 -66.40625 C 94.070312 -58.613281 97.625 -49.097656 97.625 -37.859375 C 97.625 -26.617188 94.070312 -17.128906 86.96875 -9.390625 C 79.863281 -1.648438 70.84375 2.21875 59.90625 2.21875 C 49.84375 2.21875 41.554688 -1.378906 35.046875 -8.578125 L 34.765625 -8.578125 L 34.765625 0 L 8.875 0 L 8.875 -127.203125 L 35.046875 -127.203125 L 35.046875 -68.625 C 41.554688 -74.9375 49.84375 -78.09375 59.90625 -78.09375 C 70.84375 -78.09375 79.863281 -74.195312 86.96875 -66.40625 Z M 64.921875 -25.0625 C 68.179688 -28.375 69.8125 -32.640625 69.8125 -37.859375 C 69.8125 -43.085938 68.109375 -47.378906 64.703125 -50.734375 C 61.304688 -54.085938 57.09375 -55.765625 52.0625 -55.765625 C 47.132812 -55.765625 42.96875 -54.085938 39.5625 -50.734375 C 36.164062 -47.378906 34.46875 -43.085938 34.46875 -37.859375 C 34.46875 -32.734375 36.117188 -28.492188 39.421875 -25.140625 C 42.722656 -21.785156 46.9375 -20.109375 52.0625 -20.109375 C 57.382812 -20.109375 61.671875 -21.757812 64.921875 -25.0625 Z M 64.921875 -25.0625 "/></g></g></g></svg>