<svg xmlns="http://www.w3.org/2000/svg" xmlns:xlink="http://www.w3.org/1999/xlink" width="500" zoomAndPan="magnify" viewBox="0 0 375 374.999991" height="500" preserveAspectRatio="xMidYMid meet" version="1.0"><defs><g/></defs><rect x="-37.5" width="450" fill="#ffffff" y="-37.499999" height="449.999989" fill-opacity="1"/><rect x="-37.5" width="450" fill="#c42218" y="-37.499999" height="449.999989" fill-opacity="1"/><g fill="#ffffff" fill-opacity="1"><g transform="translate(27.119221, 338.499605)"><g><path d="M 151.578125 -139.917969 C 144.851562 -136.332031 142.160156 -134.089844 140.367188 -126.015625 C 138.574219 -121.082031 135.882812 -116.152344 133.640625 -111.667969 C 130.054688 -104.9375 125.570312 -98.210938 121.980469 -91.933594 L 119.738281 -87.898438 C 115.253906 -79.378906 109.871094 -71.304688 102.695312 -64.128906 C 97.765625 -58.75 92.832031 -53.367188 87 -49.332031 L 78.03125 -43.949219 C 74.445312 -42.15625 70.855469 -42.605469 67.71875 -45.292969 C 65.027344 -47.535156 62.335938 -49.777344 60.542969 -52.917969 C 57.851562 -57.851562 54.261719 -62.785156 55.160156 -68.613281 C 55.609375 -69.0625 55.160156 -69.511719 55.160156 -69.960938 C 53.367188 -75.789062 54.261719 -97.765625 53.816406 -101.351562 C 52.917969 -103.59375 52.917969 -105.386719 53.816406 -107.183594 C 56.058594 -113.460938 56.058594 -110.769531 55.609375 -117.496094 C 55.609375 -118.394531 55.609375 -119.738281 56.058594 -120.636719 C 58.75 -126.464844 59.644531 -124.222656 58.75 -130.949219 L 58.75 -134.089844 C 59.644531 -141.265625 61.4375 -147.992188 60.09375 -155.167969 C 60.09375 -156.960938 60.542969 -157.859375 61.886719 -158.304688 C 62.785156 -158.753906 63.679688 -158.753906 64.578125 -158.753906 L 81.621094 -161.445312 C 88.347656 -162.34375 93.726562 -163.6875 100.007812 -165.480469 C 105.386719 -166.828125 107.628906 -171.3125 110.769531 -174.898438 C 112.113281 -176.246094 110.769531 -179.832031 109.425781 -180.28125 C 105.835938 -181.175781 102.695312 -182.523438 99.109375 -182.972656 C 92.382812 -184.765625 88.347656 -180.730469 81.621094 -181.175781 C 81.171875 -181.175781 76.6875 -178.039062 65.476562 -177.589844 C 62.785156 -177.589844 62.335938 -178.488281 62.785156 -181.175781 L 62.785156 -183.417969 C 64.578125 -190.148438 65.027344 -198.667969 65.027344 -205.84375 C 65.476562 -206.292969 65.476562 -207.636719 65.921875 -208.085938 C 68.613281 -211.671875 67.269531 -217.503906 70.855469 -220.191406 C 70.855469 -224.230469 73.097656 -227.367188 75.339844 -230.058594 C 77.136719 -231.851562 77.136719 -234.09375 75.789062 -235.441406 C 73.097656 -239.027344 71.304688 -243.511719 67.269531 -246.203125 L 64.128906 -248.894531 C 57.851562 -255.621094 49.332031 -258.761719 41.707031 -262.347656 C 31.390625 -264.589844 26.011719 -263.246094 25.113281 -252.035156 L 25.113281 -251.136719 C 25.5625 -247.996094 24.214844 -245.308594 23.769531 -242.167969 C 21.527344 -233.648438 19.285156 -225.125 17.488281 -217.054688 L 14.800781 -204.496094 C 13.453125 -198.21875 12.558594 -191.492188 11.660156 -185.214844 C 11.660156 -182.074219 10.761719 -178.933594 10.316406 -175.796875 C 9.867188 -174.003906 8.96875 -173.554688 7.175781 -173.554688 C 3.140625 -173.105469 4.484375 -174.449219 1.792969 -173.554688 L -5.828125 -173.105469 C -11.660156 -173.105469 -11.660156 -173.105469 -14.800781 -168.621094 C -14.800781 -168.621094 -15.246094 -168.621094 -15.246094 -168.171875 C -16.144531 -166.828125 -16.144531 -165.03125 -14.351562 -164.136719 C -13.003906 -163.6875 -12.558594 -163.238281 -11.660156 -162.34375 C -10.761719 -161.894531 -9.867188 -161.894531 -9.417969 -161.445312 C -6.726562 -160.546875 5.382812 -160.996094 2.242188 -159.203125 C 8.070312 -159.203125 8.070312 -158.753906 7.625 -152.925781 C 5.828125 -138.574219 4.484375 -133.191406 5.382812 -117.945312 C 5.828125 -113.460938 6.277344 -117.496094 6.277344 -113.011719 C 7.175781 -95.523438 14.800781 -74.445312 16.59375 -70.40625 C 18.386719 -66.371094 20.628906 -62.335938 22.421875 -57.851562 C 24.214844 -53.816406 28.253906 -51.125 30.945312 -47.984375 C 33.632812 -45.742188 36.773438 -43.949219 39.464844 -42.15625 C 43.949219 -39.015625 48.882812 -34.980469 53.367188 -32.738281 C 60.992188 -29.597656 68.613281 -27.804688 76.6875 -29.597656 C 87 -31.390625 95.523438 -35.875 101.800781 -44.398438 C 102.25 -45.292969 103.144531 -45.742188 103.59375 -46.191406 C 108.976562 -49.777344 116.152344 -63.679688 117.945312 -66.371094 C 118.839844 -68.164062 120.1875 -70.40625 121.53125 -72.203125 C 126.464844 -78.480469 139.023438 -97.765625 140.816406 -99.558594 C 142.609375 -102.25 143.507812 -104.492188 145.300781 -106.734375 C 150.683594 -118.394531 154.269531 -124.222656 157.410156 -130.054688 C 157.410156 -130.5 158.304688 -130.5 158.753906 -130.5 C 159.203125 -131.398438 154.71875 -141.714844 151.578125 -139.917969 Z M 151.578125 -139.917969 "/></g></g></g><g fill="#ffffff" fill-opacity="1"><g transform="translate(140.349321, 297.358402)"><g><path d="M 147.015625 30.539062 C 150.210938 30.894531 152.699219 29.828125 155.539062 29.472656 C 156.957031 28.765625 158.734375 28.410156 159.445312 26.988281 C 162.640625 20.597656 165.480469 14.203125 165.835938 7.101562 C 166.191406 0.355469 166.546875 -6.746094 168.675781 -13.847656 C 172.9375 -28.410156 174.359375 -43.679688 176.488281 -58.59375 C 177.554688 -58.59375 178.265625 -58.59375 179.332031 -58.949219 C 188.5625 -61.789062 198.152344 -64.628906 206.320312 -70.667969 C 213.066406 -75.636719 220.167969 -80.253906 224.074219 -88.421875 C 224.785156 -90.554688 225.140625 -92.683594 226.914062 -94.816406 C 232.242188 -101.917969 232.597656 -109.730469 229.046875 -117.1875 C 225.496094 -118.960938 223.363281 -110.4375 223.007812 -109.730469 L 221.234375 -104.046875 C 218.394531 -96.945312 214.132812 -91.261719 209.871094 -85.226562 C 202.414062 -74.574219 190.339844 -67.824219 177.554688 -69.246094 C 175.78125 -69.246094 174.714844 -70.667969 174.714844 -72.441406 C 175.070312 -73.152344 175.070312 -74.21875 175.425781 -74.929688 C 174.714844 -76.347656 174.714844 -78.835938 174.714844 -80.964844 C 174.714844 -82.742188 175.425781 -84.515625 175.070312 -86.292969 C 176.132812 -94.460938 175.78125 -102.273438 176.488281 -110.085938 C 177.199219 -123.222656 178.265625 -150.566406 177.199219 -163.351562 C 176.132812 -172.9375 181.105469 -182.171875 174.714844 -191.40625 C 172.9375 -194.246094 171.519531 -196.730469 168.324219 -197.441406 C 160.511719 -199.925781 153.050781 -203.125 145.238281 -204.542969 C 142.042969 -205.253906 138.492188 -207.738281 135.296875 -205.609375 C 134.941406 -205.253906 134.941406 -205.253906 134.585938 -205.609375 C 133.523438 -204.898438 132.457031 -205.253906 131.390625 -205.253906 C 126.417969 -204.898438 126.0625 -204.1875 127.128906 -199.570312 C 127.484375 -198.152344 127.128906 -197.085938 127.128906 -195.664062 C 125.710938 -187.851562 126.773438 -180.039062 126.417969 -172.230469 C 124.289062 -147.371094 124.644531 -108.308594 127.839844 -83.804688 C 128.195312 -80.609375 126.417969 -77.058594 126.773438 -73.863281 C 126.773438 -70.3125 123.222656 -68.890625 120.027344 -69.246094 C 115.054688 -69.957031 105.824219 -71.023438 100.140625 -71.023438 C 95.167969 -71.023438 93.75 -72.085938 93.75 -76.347656 C 93.75 -82.742188 91.972656 -89.132812 91.261719 -95.523438 C 90.910156 -98.367188 89.84375 -101.5625 90.910156 -104.402344 C 93.039062 -111.148438 93.394531 -117.898438 93.039062 -124.644531 C 93.039062 -132.8125 93.039062 -140.980469 92.328125 -149.144531 C 91.617188 -156.957031 93.75 -164.769531 93.394531 -172.582031 C 93.039062 -180.75 92.328125 -189.273438 92.683594 -197.796875 C 92.683594 -198.507812 92.683594 -199.570312 92.328125 -200.28125 C 91.261719 -208.449219 90.199219 -217.328125 87.710938 -225.496094 C 87.355469 -226.914062 86.648438 -227.980469 86.292969 -229.402344 C 86.292969 -230.820312 87.710938 -234.726562 87.003906 -235.792969 C 87.003906 -236.503906 87.355469 -237.570312 86.648438 -237.925781 C 82.742188 -240.054688 80.253906 -243.25 75.992188 -244.316406 L 75.636719 -244.671875 C 74.929688 -245.027344 71.378906 -246.089844 70.3125 -246.089844 C 69.957031 -246.445312 69.601562 -246.445312 69.601562 -246.800781 L 67.824219 -248.578125 L 64.984375 -248.578125 C 61.433594 -249.644531 57.527344 -250.707031 54.332031 -251.417969 C 49.714844 -252.128906 45.808594 -252.128906 42.257812 -248.578125 C 41.546875 -247.511719 40.128906 -246.800781 38.707031 -246.089844 C 35.867188 -245.027344 35.15625 -242.894531 35.15625 -240.765625 C 35.15625 -225.851562 34.800781 -210.582031 35.15625 -195.664062 C 35.15625 -181.816406 36.929688 -168.324219 38.707031 -154.472656 C 39.773438 -146.304688 41.191406 -138.136719 40.835938 -130.324219 C 40.835938 -118.960938 41.191406 -108.308594 43.679688 -97.300781 C 46.164062 -85.9375 47.585938 -81.320312 49.003906 -69.601562 C 49.359375 -68.179688 49.003906 -66.40625 48.296875 -64.984375 C 42.96875 -61.433594 34.445312 -54.332031 30.183594 -49.714844 C 26.277344 -45.453125 20.597656 -35.867188 19.53125 -28.410156 C 17.046875 -13.847656 20.597656 -4.261719 25.566406 2.128906 C 29.828125 8.523438 35.511719 13.140625 43.679688 13.847656 C 48.296875 14.203125 52.910156 13.847656 57.171875 13.140625 C 62.5 12.429688 67.472656 10.296875 70.3125 4.972656 C 71.023438 4.261719 71.730469 3.195312 72.796875 2.839844 C 74.21875 1.777344 75.636719 0.710938 75.992188 -0.710938 C 77.058594 -3.195312 79.191406 -5.328125 80.964844 -6.746094 C 83.097656 -9.234375 84.515625 -11.71875 84.160156 -14.558594 C 84.160156 -17.402344 84.871094 -20.242188 85.582031 -22.371094 C 87.710938 -27.699219 90.199219 -35.867188 90.199219 -44.390625 C 90.199219 -61.078125 92.328125 -62.144531 97.65625 -61.078125 C 103.691406 -60.011719 113.28125 -59.304688 119.316406 -59.304688 C 121.449219 -59.660156 123.222656 -59.304688 125 -58.949219 C 126.773438 -58.238281 127.484375 -57.527344 127.839844 -55.753906 C 128.90625 -50.78125 130.324219 -45.808594 129.96875 -40.484375 C 129.617188 -37.996094 129.617188 -35.511719 130.324219 -33.734375 C 132.8125 -23.4375 132.8125 -12.785156 136.007812 -2.484375 C 138.136719 4.972656 137.78125 13.140625 142.042969 19.886719 C 142.753906 20.597656 142.398438 21.660156 142.753906 22.371094 L 143.820312 27.699219 C 144.175781 29.472656 145.238281 30.183594 147.015625 30.539062 Z M 32.671875 -6.746094 C 28.410156 -10.296875 28.410156 -15.625 28.765625 -20.242188 C 29.117188 -25.921875 28.054688 -33.378906 30.894531 -37.996094 C 32.671875 -41.191406 34.445312 -42.613281 38.351562 -45.808594 C 42.613281 -49.359375 50.070312 -56.460938 52.203125 -50.78125 C 52.554688 -46.519531 54.332031 -45.808594 53.976562 -41.546875 C 55.042969 -32.671875 55.753906 -20.597656 53.265625 -12.074219 C 50.78125 -4.972656 39.417969 -1.066406 32.671875 -6.746094 Z M 32.671875 -6.746094 "/></g></g></g></svg>