<svg xmlns="http://www.w3.org/2000/svg" xmlns:xlink="http://www.w3.org/1999/xlink" width="500" zoomAndPan="magnify" viewBox="0 0 375 374.999991" height="500" preserveAspectRatio="xMidYMid meet" version="1.0"><defs><g/></defs><rect x="-37.5" width="450" fill="#ffffff" y="-37.499999" height="449.999989" fill-opacity="1"/><rect x="-37.5" width="450" fill="#c42218" y="-37.499999" height="449.999989" fill-opacity="1"/><g fill="#ffffff" fill-opacity="1"><g transform="translate(20.371603, 333.352537)"><g><path d="M 0.640625 -53.34375 L 0.640625 -66.671875 L 47.515625 -66.671875 L 47.515625 -53.34375 L 31.671875 -53.34375 L 31.671875 0 L 16.484375 0 L 16.484375 -53.34375 Z M 0.640625 -53.34375 "/></g></g></g><g fill="#ffffff" fill-opacity="1"><g transform="translate(68.535867, 333.352537)"><g><path d="M 43 -66.671875 L 43 -53.34375 L 20.046875 -53.34375 L 20.046875 -40.078125 L 42.015625 -40.078125 L 42.015625 -26.75 L 20.046875 -26.75 L 20.046875 -13.328125 L 43 -13.328125 L 43 0 L 4.84375 0 L 4.84375 -66.671875 Z M 43 -66.671875 "/></g></g></g><g fill="#ffffff" fill-opacity="1"><g transform="translate(115.40713, 333.352537)"><g><path d="M 65.53125 0 L 44.609375 0 L 20.046875 -28.28125 L 20.046875 0 L 4.84375 0 L 4.84375 -66.671875 L 20.046875 -66.671875 L 20.046875 -39.4375 L 42.90625 -66.671875 L 61.34375 -66.671875 L 34.5 -35.078125 Z M 65.53125 0 "/></g></g></g><g fill="#ffffff" fill-opacity="1"><g transform="translate(179.006601, 333.352537)"><g><path d="M 20.046875 -26.75 L 20.046875 0 L 4.84375 0 L 4.84375 -66.671875 L 20.046875 -66.671875 L 20.046875 -40.078125 L 41.53125 -40.078125 L 41.53125 -66.671875 L 56.734375 -66.671875 L 56.734375 0 L 41.53125 0 L 41.53125 -26.75 Z M 20.046875 -26.75 "/></g></g></g><g fill="#ffffff" fill-opacity="1"><g transform="translate(240.585773, 333.352537)"><g><path d="M 56.078125 -66.671875 L 56.078125 -23.671875 C 56.078125 -15.484375 53.867188 -9.285156 49.453125 -5.078125 C 45.035156 -0.878906 38.570312 1.21875 30.0625 1.21875 C 21.550781 1.21875 15.085938 -0.878906 10.671875 -5.078125 C 6.253906 -9.285156 4.046875 -15.484375 4.046875 -23.671875 L 4.046875 -66.671875 L 19.234375 -66.671875 L 19.234375 -28.125 C 19.234375 -22.738281 20.082031 -18.992188 21.78125 -16.890625 C 23.476562 -14.785156 26.238281 -13.734375 30.0625 -13.734375 C 33.882812 -13.734375 36.644531 -14.785156 38.34375 -16.890625 C 40.039062 -18.992188 40.890625 -22.738281 40.890625 -28.125 L 40.890625 -66.671875 Z M 56.078125 -66.671875 "/></g></g></g><g fill="#ffffff" fill-opacity="1"><g transform="translate(300.710291, 333.352537)"><g><path d="M 4.84375 -66.671875 L 25.53125 -66.671875 C 31.78125 -66.671875 36.765625 -65.335938 40.484375 -62.671875 C 44.203125 -60.003906 46.0625 -55.679688 46.0625 -49.703125 C 46.0625 -43.015625 43.285156 -38.242188 37.734375 -35.390625 C 47.222656 -33.722656 51.96875 -28.125 51.96875 -18.59375 C 51.96875 -12.988281 50.023438 -8.488281 46.140625 -5.09375 C 42.265625 -1.695312 36.929688 0 30.140625 0 L 4.84375 0 Z M 20.046875 -40.5625 L 21.25 -40.5625 C 24.644531 -40.5625 27.175781 -41.15625 28.84375 -42.34375 C 30.519531 -43.53125 31.359375 -45.472656 31.359375 -48.171875 C 31.359375 -52.691406 27.988281 -54.953125 21.25 -54.953125 L 20.046875 -54.953125 Z M 20.046875 -11.71875 L 24.8125 -11.71875 C 32.25 -11.71875 35.96875 -14.195312 35.96875 -19.15625 C 35.96875 -22.113281 35.035156 -24.238281 33.171875 -25.53125 C 31.316406 -26.820312 28.53125 -27.46875 24.8125 -27.46875 L 20.046875 -27.46875 Z M 20.046875 -11.71875 "/></g></g></g><g fill="#ffffff" fill-opacity="1"><g transform="translate(54.930476, 277.721401)"><g><path d="M 120.027344 -110.792969 C 114.699219 -107.953125 112.570312 -106.179688 111.148438 -99.785156 C 109.730469 -95.878906 107.597656 -91.972656 105.824219 -88.421875 C 102.980469 -83.097656 99.429688 -77.769531 96.589844 -72.796875 L 94.816406 -69.601562 C 91.261719 -62.855469 87.003906 -56.460938 81.320312 -50.78125 C 77.414062 -46.519531 73.507812 -42.257812 68.890625 -39.0625 L 61.789062 -34.800781 C 58.949219 -33.378906 56.109375 -33.734375 53.621094 -35.867188 C 51.492188 -37.640625 49.359375 -39.417969 47.941406 -41.902344 C 45.808594 -45.808594 42.96875 -49.714844 43.679688 -54.332031 C 44.035156 -54.6875 43.679688 -55.042969 43.679688 -55.398438 C 42.257812 -60.011719 42.96875 -77.414062 42.613281 -80.253906 C 41.902344 -82.03125 41.902344 -83.449219 42.613281 -84.871094 C 44.390625 -89.84375 44.390625 -87.710938 44.035156 -93.039062 C 44.035156 -93.75 44.035156 -94.816406 44.390625 -95.523438 C 46.519531 -100.140625 47.230469 -98.367188 46.519531 -103.691406 L 46.519531 -106.179688 C 47.230469 -111.859375 48.648438 -117.1875 47.585938 -122.867188 C 47.585938 -124.289062 47.941406 -125 49.003906 -125.355469 C 49.714844 -125.710938 50.425781 -125.710938 51.136719 -125.710938 L 64.628906 -127.839844 C 69.957031 -128.550781 74.21875 -129.617188 79.191406 -131.035156 C 83.449219 -132.101562 85.226562 -135.652344 87.710938 -138.492188 C 88.777344 -139.558594 87.710938 -142.398438 86.648438 -142.753906 C 83.804688 -143.464844 81.320312 -144.53125 78.480469 -144.886719 C 73.152344 -146.304688 69.957031 -143.109375 64.628906 -143.464844 C 64.273438 -143.464844 60.722656 -140.980469 51.847656 -140.625 C 49.714844 -140.625 49.359375 -141.332031 49.714844 -143.464844 L 49.714844 -145.238281 C 51.136719 -150.566406 51.492188 -157.3125 51.492188 -162.996094 C 51.847656 -163.351562 51.847656 -164.417969 52.203125 -164.769531 C 54.332031 -167.613281 53.265625 -172.230469 56.109375 -174.359375 C 56.109375 -177.554688 57.882812 -180.039062 59.660156 -182.171875 C 61.078125 -183.59375 61.078125 -185.367188 60.011719 -186.433594 C 57.882812 -189.273438 56.460938 -192.824219 53.265625 -194.957031 L 50.78125 -197.085938 C 45.808594 -202.414062 39.0625 -204.898438 33.023438 -207.738281 C 24.859375 -209.515625 20.597656 -208.449219 19.886719 -199.570312 L 19.886719 -198.863281 C 20.242188 -196.375 19.175781 -194.246094 18.820312 -191.757812 C 17.046875 -185.011719 15.269531 -178.265625 13.847656 -171.875 L 11.71875 -161.929688 C 10.652344 -156.957031 9.941406 -151.632812 9.234375 -146.660156 C 9.234375 -144.175781 8.523438 -141.6875 8.167969 -139.203125 C 7.8125 -137.78125 7.101562 -137.425781 5.683594 -137.425781 C 2.484375 -137.074219 3.550781 -138.136719 1.421875 -137.425781 L -4.617188 -137.074219 C -9.234375 -137.074219 -9.234375 -137.074219 -11.71875 -133.523438 C -11.71875 -133.523438 -12.074219 -133.523438 -12.074219 -133.167969 C -12.785156 -132.101562 -12.785156 -130.679688 -11.363281 -129.96875 C -10.296875 -129.617188 -9.941406 -129.261719 -9.234375 -128.550781 C -8.523438 -128.195312 -7.8125 -128.195312 -7.457031 -127.839844 C -5.328125 -127.128906 4.261719 -127.484375 1.777344 -126.0625 C 6.390625 -126.0625 6.390625 -125.710938 6.035156 -121.09375 C 4.617188 -109.730469 3.550781 -105.46875 4.261719 -93.394531 C 4.617188 -89.84375 4.972656 -93.039062 4.972656 -89.488281 C 5.683594 -75.636719 11.71875 -58.949219 13.140625 -55.753906 C 14.558594 -52.554688 16.335938 -49.359375 17.753906 -45.808594 C 19.175781 -42.613281 22.371094 -40.484375 24.503906 -37.996094 C 26.632812 -36.222656 29.117188 -34.800781 31.25 -33.378906 C 34.800781 -30.894531 38.707031 -27.699219 42.257812 -25.921875 C 48.296875 -23.4375 54.332031 -22.015625 60.722656 -23.4375 C 68.890625 -24.859375 75.636719 -28.410156 80.609375 -35.15625 C 80.964844 -35.867188 81.675781 -36.222656 82.03125 -36.578125 C 86.292969 -39.417969 91.972656 -50.425781 93.394531 -52.554688 C 94.105469 -53.976562 95.167969 -55.753906 96.234375 -57.171875 C 100.140625 -62.144531 110.085938 -77.414062 111.503906 -78.835938 C 112.925781 -80.964844 113.636719 -82.742188 115.054688 -84.515625 C 119.316406 -93.75 122.15625 -98.367188 124.644531 -102.980469 C 124.644531 -103.335938 125.355469 -103.335938 125.710938 -103.335938 C 126.0625 -104.046875 122.511719 -112.214844 120.027344 -110.792969 Z M 120.027344 -110.792969 "/></g></g></g><g fill="#ffffff" fill-opacity="1"><g transform="translate(166.07736, 277.721401)"><g><path d="M 35.511719 -23.082031 C 40.835938 -20.953125 45.097656 -24.148438 49.359375 -25.566406 L 50.78125 -26.632812 C 51.847656 -29.117188 53.265625 -32.316406 51.847656 -35.15625 C 50.425781 -38.707031 51.492188 -42.613281 49.714844 -45.808594 C 49.003906 -49.003906 47.585938 -54.332031 49.359375 -57.882812 C 51.492188 -62.144531 52.203125 -66.40625 51.847656 -71.378906 C 51.136719 -75.992188 51.492188 -73.507812 53.265625 -77.769531 C 53.976562 -79.191406 54.332031 -80.253906 54.6875 -82.03125 L 55.398438 -84.515625 C 54.332031 -87.003906 55.398438 -89.488281 56.460938 -91.972656 C 57.527344 -95.523438 57.882812 -99.785156 60.011719 -102.980469 C 62.144531 -108.308594 64.628906 -111.503906 66.40625 -115.054688 C 67.472656 -117.898438 68.535156 -120.027344 71.023438 -121.804688 C 72.085938 -122.511719 72.441406 -124.289062 74.574219 -123.578125 C 75.636719 -123.222656 75.992188 -121.449219 75.992188 -120.382812 C 76.703125 -116.121094 76.703125 -112.570312 76.347656 -108.664062 C 75.992188 -102.980469 72.796875 -96.945312 72.796875 -83.804688 C 72.796875 -74.21875 75.992188 -65.339844 82.386719 -58.59375 L 88.421875 -51.492188 C 91.261719 -48.648438 95.167969 -46.519531 99.429688 -45.097656 C 101.5625 -45.097656 103.691406 -44.390625 105.824219 -43.679688 C 112.570312 -41.546875 118.960938 -41.191406 125.355469 -43.679688 C 127.128906 -43.679688 127.839844 -44.390625 128.550781 -45.097656 C 133.523438 -50.070312 137.425781 -55.042969 140.980469 -61.789062 C 143.464844 -66.761719 145.949219 -72.085938 148.4375 -76.703125 C 153.050781 -83.804688 156.605469 -90.554688 158.023438 -99.429688 L 158.734375 -103.691406 C 158.734375 -106.53125 160.511719 -108.664062 161.21875 -111.148438 C 162.285156 -115.054688 154.828125 -117.1875 154.117188 -113.636719 C 153.761719 -112.214844 149.5 -99.785156 150.210938 -101.207031 C 149.855469 -100.140625 148.4375 -96.234375 148.4375 -95.167969 C 147.726562 -90.554688 145.59375 -87.003906 143.464844 -83.804688 C 142.042969 -82.03125 140.980469 -79.191406 140.269531 -77.058594 C 138.847656 -73.863281 136.363281 -71.378906 134.230469 -69.246094 C 133.167969 -68.179688 132.101562 -67.117188 132.101562 -66.40625 C 131.746094 -63.210938 129.96875 -61.433594 127.839844 -60.011719 C 126.773438 -58.949219 125.355469 -58.238281 124.289062 -56.816406 C 120.738281 -54.332031 116.832031 -54.332031 114.34375 -58.59375 C 109.730469 -63.210938 109.730469 -66.050781 108.664062 -72.796875 C 107.597656 -74.574219 108.664062 -77.058594 108.664062 -78.835938 C 110.4375 -97.300781 109.375 -107.597656 107.953125 -114.34375 C 106.886719 -120.027344 105.824219 -124.644531 101.5625 -128.195312 C 96.589844 -133.523438 89.84375 -136.007812 82.742188 -135.652344 C 78.835938 -134.941406 75.285156 -134.941406 71.378906 -133.875 C 69.601562 -133.523438 67.472656 -132.8125 65.695312 -131.746094 C 61.789062 -129.261719 58.238281 -127.128906 54.332031 -123.578125 C 51.136719 -119.671875 47.230469 -115.054688 45.453125 -110.085938 C 44.742188 -109.019531 44.390625 -107.953125 42.96875 -108.308594 C 41.902344 -108.664062 42.613281 -109.730469 42.613281 -110.792969 C 42.96875 -113.28125 42.96875 -115.054688 41.902344 -117.542969 C 41.191406 -121.449219 42.613281 -126.0625 43.324219 -129.96875 C 43.324219 -130.324219 43.679688 -131.035156 44.390625 -131.390625 C 46.875 -134.941406 47.585938 -138.847656 50.78125 -142.398438 C 52.554688 -145.238281 53.621094 -148.4375 55.398438 -150.921875 C 59.304688 -156.605469 60.722656 -162.285156 62.855469 -168.324219 L 66.761719 -185.011719 C 68.535156 -188.917969 69.601562 -192.46875 69.601562 -196.730469 C 69.601562 -200.28125 70.3125 -203.832031 71.023438 -207.382812 C 72.085938 -214.488281 71.378906 -220.878906 70.667969 -227.625 C 70.3125 -232.242188 65.695312 -236.503906 61.078125 -236.859375 C 57.527344 -237.570312 53.265625 -236.148438 49.003906 -235.082031 L 44.390625 -231.886719 C 37.996094 -226.558594 29.117188 -225.851562 23.082031 -214.488281 C 21.304688 -210.9375 21.304688 -207.382812 19.175781 -203.832031 C 17.046875 -196.019531 13.496094 -188.207031 11.363281 -179.6875 C 11.363281 -179.332031 8.523438 -169.03125 8.167969 -166.902344 C 6.746094 -160.511719 5.683594 -153.40625 4.261719 -146.660156 L 4.261719 -144.53125 C 3.550781 -138.136719 3.195312 -131.746094 3.195312 -125.355469 C 2.128906 -118.25 1.777344 -111.859375 2.128906 -104.402344 C 2.484375 -100.496094 1.777344 -95.878906 2.839844 -91.261719 L 3.195312 -78.480469 C 3.195312 -75.285156 3.195312 -72.441406 3.550781 -69.246094 C 3.550781 -65.339844 3.550781 -68.179688 3.90625 -63.566406 C 4.261719 -60.011719 5.328125 -56.109375 5.683594 -52.910156 C 6.746094 -49.359375 7.457031 -50.78125 8.523438 -46.875 L 11.007812 -36.578125 C 11.363281 -34.445312 12.074219 -32.316406 14.203125 -31.25 C 17.402344 -30.183594 19.886719 -28.410156 23.082031 -27.699219 C 27.34375 -25.921875 31.605469 -25.566406 35.511719 -23.082031 Z M 45.808594 -149.144531 C 44.742188 -149.5 44.742188 -150.210938 45.097656 -150.921875 C 45.808594 -155.539062 44.742188 -160.511719 45.808594 -165.125 C 46.164062 -169.386719 46.519531 -174.359375 46.164062 -179.332031 C 46.164062 -183.945312 46.875 -189.273438 45.808594 -193.890625 C 45.097656 -197.796875 46.519531 -202.058594 47.230469 -206.320312 C 47.941406 -210.226562 48.648438 -214.839844 50.425781 -218.746094 C 50.78125 -221.234375 51.847656 -223.71875 53.976562 -224.074219 C 56.816406 -224.785156 59.304688 -223.71875 60.722656 -221.945312 C 62.144531 -220.878906 62.5 -219.457031 62.144531 -218.039062 C 61.078125 -211.289062 62.144531 -204.1875 61.078125 -197.441406 C 60.722656 -191.757812 60.722656 -186.433594 58.238281 -181.105469 C 56.816406 -177.199219 56.460938 -172.9375 53.976562 -168.324219 C 51.847656 -163.707031 50.425781 -158.378906 48.296875 -153.050781 C 47.941406 -151.988281 47.941406 -150.921875 47.230469 -150.566406 C 46.875 -149.855469 46.519531 -149.144531 45.808594 -149.144531 Z M 45.808594 -149.144531 "/></g></g></g></svg>