<svg width="124" height="124" viewBox="0 0 124 124" fill="none" xmlns="http://www.w3.org/2000/svg">
<rect width="124" height="124" fill="white"/>
<path d="M36.922 89.73C31.4227 89.73 27.14 88.416 24.074 85.788C21.008 83.1113 19.475 79.0233 19.475 73.524V40.09H35.973V73.378C35.973 74.5947 36.2893 75.5437 36.922 76.225C37.6033 76.9063 38.4307 77.247 39.404 77.247C40.8153 77.247 42.0563 76.882 43.127 76.152L47.069 87.613C45.8037 88.343 44.2707 88.8783 42.47 89.219C40.718 89.5597 38.8687 89.73 36.922 89.73ZM14 63.304V51.259H44.149V63.304H14ZM59.9141 89V51.259H44.9491V37.9H92.1072V51.259H77.1422V89H59.9141ZM98.0304 89.73C95.3051 89.73 93.0178 88.854 91.1684 87.102C89.3191 85.3013 88.3944 83.014 88.3944 80.24C88.3944 77.4173 89.3191 75.1543 91.1684 73.451C93.0178 71.7477 95.3051 70.896 98.0304 70.896C100.756 70.896 103.043 71.7477 104.892 73.451C106.742 75.1543 107.666 77.4173 107.666 80.24C107.666 83.014 106.742 85.3013 104.892 87.102C103.043 88.854 100.756 89.73 98.0304 89.73Z" fill="#3671FF"/>
</svg>
