<svg width="94" height="53" viewBox="0 0 94 53" fill="none" xmlns="http://www.w3.org/2000/svg">
<path d="M22.922 52.73C17.4227 52.73 13.14 51.416 10.074 48.788C7.008 46.1113 5.475 42.0233 5.475 36.524V3.09H21.973V36.378C21.973 37.5947 22.2893 38.5437 22.922 39.225C23.6033 39.9063 24.4307 40.247 25.404 40.247C26.8153 40.247 28.0563 39.882 29.127 39.152L33.069 50.613C31.8037 51.343 30.2707 51.8783 28.47 52.219C26.718 52.5597 24.8687 52.73 22.922 52.73ZM0 26.304V14.259H30.149V26.304H0ZM45.9141 52V14.259H30.9491V0.899997H78.1072V14.259H63.1422V52H45.9141ZM84.0304 52.73C81.3051 52.73 79.0178 51.854 77.1684 50.102C75.3191 48.3013 74.3944 46.014 74.3944 43.24C74.3944 40.4173 75.3191 38.1543 77.1684 36.451C79.0178 34.7477 81.3051 33.896 84.0304 33.896C86.7558 33.896 89.0431 34.7477 90.8924 36.451C92.7418 38.1543 93.6664 40.4173 93.6664 43.24C93.6664 46.014 92.7418 48.3013 90.8924 50.102C89.0431 51.854 86.7558 52.73 84.0304 52.73Z" fill="#3671FF"/>
</svg>
