<svg xmlns="http://www.w3.org/2000/svg" xmlns:xlink="http://www.w3.org/1999/xlink" width="1000" zoomAndPan="magnify" viewBox="0 0 750 749.999995" height="1000" preserveAspectRatio="xMidYMid meet" version="1.0"><rect x="-75" width="900" fill="#ffffff" y="-74.999999" height="899.999994" fill-opacity="1"/><rect x="-75" width="900" fill="#ffffff" y="-74.999999" height="899.999994" fill-opacity="1"/><path fill="#8595ff" d="M 11.089844 687.589844 C 21.375 708.34375 31.679688 729.042969 42.253906 749.515625 L 0.242188 749.515625 L 0.242188 665.023438 C 3.894531 672.792969 7.5 680.34375 11.089844 687.589844 Z M 180.046875 382.171875 C 162.929688 363.6875 126.867188 354.746094 103.910156 347.742188 C 69.855469 337.347656 35.101562 329.726562 0.242188 322.492188 L 0.242188 341.816406 C 12 344.507812 23.699219 347.433594 35.3125 350.730469 C 91.183594 366.585938 129.082031 397 146.054688 451.941406 C 167.222656 520.453125 151.953125 605.816406 155.746094 676.855469 C 157.222656 704.585938 158.90625 724.566406 166.789062 749.515625 L 204.804688 749.515625 C 205.953125 720.78125 208.210938 692.074219 210.015625 663.742188 C 214.238281 597.527344 220.941406 529.269531 210.132812 463.328125 C 205.871094 437.316406 198.730469 402.34375 180.046875 382.171875 Z M 319.277344 434.320312 C 314.046875 366.316406 272.878906 338.207031 211.042969 318.046875 C 142.347656 295.648438 70.472656 284.839844 0.242188 268.046875 L 0.242188 299.527344 C 55.960938 312.117188 112.171875 322.898438 166.4375 340.734375 C 227.929688 360.949219 264.941406 384.984375 272.882812 452.371094 C 280.972656 521.03125 266.617188 592.0625 256.210938 659.734375 C 252.179688 685.9375 246.121094 717.105469 241.65625 749.515625 L 271.789062 749.515625 C 277.875 709.371094 287.519531 670.25 293.628906 639.480469 C 306.855469 572.855469 324.539062 502.734375 319.277344 434.320312 Z M 355.929688 545.523438 C 369.589844 474.550781 390.183594 397.132812 380.238281 324.347656 C 370.40625 252.382812 315.125 245.398438 254.328125 227.128906 C 179.667969 204.695312 82.101562 185.972656 0.242188 148.433594 L 0.242188 210.910156 C 75.207031 233.457031 152.792969 246.121094 227.902344 268.160156 C 288.21875 285.855469 340.550781 302.976562 349.824219 371.996094 C 359.578125 444.589844 339.261719 521.699219 325.421875 592.449219 C 317.222656 634.363281 302.039062 693.144531 297.96875 749.515625 L 326.5 749.515625 C 323.945312 679.8125 345.664062 598.859375 355.929688 545.523438 Z M 411.96875 467.226562 C 426.449219 398.113281 453.382812 313.003906 436.246094 242.089844 C 420.773438 178.078125 351.671875 187.507812 298.910156 169.632812 C 190.257812 132.820312 106.308594 52.640625 6.921875 0 L 0.242188 0 L 0.242188 69.878906 C 86.050781 121.675781 178.019531 163.304688 273.5625 193.667969 C 333.238281 212.632812 398.007812 210.121094 409.175781 283.5625 C 420.164062 355.8125 398.375 433.925781 384.457031 504.292969 C 371.789062 568.347656 342.1875 672.125 357.007812 749.515625 L 392.085938 749.515625 C 355.320312 670.796875 396.621094 540.464844 411.96875 467.226562 Z M 524.742188 738.601562 C 369.324219 707.265625 442.90625 503.753906 467.648438 399.746094 C 482.566406 337.023438 509.09375 260.75 496.34375 195.867188 C 490.914062 168.230469 479.863281 155.746094 452.105469 149.929688 C 412.855469 141.703125 375.0625 144 336.980469 127.773438 C 276.285156 101.90625 243.496094 51.605469 207.707031 0 L 125.324219 0 C 137.71875 10.003906 149.929688 21.085938 162.25 33.222656 C 207.511719 77.832031 251.800781 121.105469 311.796875 145.246094 C 366.25 167.160156 453.203125 150.578125 466.160156 221.070312 C 478.738281 289.464844 454.0625 366.652344 439.367188 432.921875 C 419.71875 521.507812 366.40625 683.265625 444.523438 749.511719 L 749.757812 749.511719 L 749.757812 730.976562 C 675.476562 730.832031 595.511719 752.867188 524.742188 738.601562 Z M 585.472656 668.167969 C 423.910156 638.933594 502.769531 436.515625 530.507812 331.121094 C 545.21875 275.234375 578.582031 193.386719 561.351562 134.746094 C 553.328125 107.421875 538.050781 105.082031 511.578125 104.121094 C 464.996094 102.433594 417.984375 104.246094 376.085938 80.070312 C 342.511719 60.699219 325.316406 32.089844 313.785156 0 L 266.234375 0 C 285.566406 42.273438 308.199219 81.597656 352.625 104.460938 C 371.878906 114.371094 392.824219 120.011719 414.046875 123.714844 C 438.738281 128.019531 470.042969 122.945312 493.230469 129.1875 C 514.726562 134.976562 523.835938 147.609375 528.164062 169.527344 C 540.507812 231.984375 512.726562 306.578125 497.699219 366.351562 C 471.0625 472.304688 395.03125 674.777344 556.054688 703.558594 C 613.1875 713.773438 683.0625 699.066406 749.757812 694.71875 L 749.757812 665.507812 C 695.347656 670.171875 639.269531 677.90625 585.472656 668.167969 Z M 671.925781 600.875 C 611.917969 590.847656 583.261719 562.5625 581.398438 500.449219 C 578.9375 418.28125 606.59375 334.632812 626.15625 255.828125 C 641.289062 194.867188 669.292969 115.9375 652.597656 52.601562 C 644.984375 23.71875 630.023438 14.242188 601.585938 11.652344 C 561.890625 8.035156 523.578125 12.070312 486.148438 0 L 371.148438 0 C 381.097656 16.359375 394.742188 30.664062 414.375 41.683594 C 464.835938 70.007812 514.136719 55.191406 567.539062 62.636719 C 588.289062 65.53125 599.871094 72.78125 605.597656 93.957031 C 621.835938 154.011719 588.308594 234.554688 572.683594 291.609375 C 552.230469 366.296875 524.359375 446.007812 525.199219 524.359375 C 525.886719 588.390625 558.445312 621.40625 620.425781 632.726562 C 662.78125 640.457031 706.566406 637.378906 749.761719 633.796875 L 749.761719 602.824219 C 722.105469 604.617188 695.6875 604.847656 671.925781 600.875 Z M 706.824219 451.023438 C 694.273438 371.992188 718.34375 280.027344 723.753906 200.910156 C 728.199219 135.972656 735.460938 61.015625 707.414062 0 L 674.160156 0 C 678.378906 5.808594 682.015625 12.644531 684.933594 20.75 C 707.722656 84.003906 687.898438 163.46875 676.796875 227.121094 C 663.417969 303.820312 644.117188 382.460938 647.019531 460.828125 C 649.425781 525.691406 670.558594 561.292969 735.773438 571.257812 C 740.371094 571.960938 745.035156 572.515625 749.757812 572.941406 L 749.757812 482.152344 C 729.382812 487.117188 710.890625 476.636719 706.824219 451.023438 Z M 733.472656 0 C 740.285156 14.585938 745.589844 29.851562 749.757812 45.515625 L 749.757812 0 Z M 0.242188 376.976562 L 0.242188 556.574219 C 74.460938 633.398438 90.910156 749.515625 90.910156 749.515625 L 139.261719 749.515625 C 139.261719 749.515625 120.054688 695.464844 120.046875 622.796875 C 121.285156 397.023438 0.242188 376.976562 0.242188 376.976562 Z M 0.242188 376.976562 " fill-opacity="1" fill-rule="nonzero"/></svg>